
<svg width="400" height="400" viewBox="0 0 1024 1024" xmlns="http://www.w3.org/2000/svg">
  <defs>
    <!-- 1. 银色边框渐变 -->
    <linearGradient id="silverGradient" x1="0%" y1="0%" x2="100%" y2="100%">
      <stop offset="0%" style="stop-color:#f0f0f0;stop-opacity:1" />
      <stop offset="30%" style="stop-color:#a0a0a0;stop-opacity:1" />
      <stop offset="50%" style="stop-color:#ffffff;stop-opacity:1" />
      <stop offset="70%" style="stop-color:#a0a0a0;stop-opacity:1" />
      <stop offset="100%" style="stop-color:#505050;stop-opacity:1" />
    </linearGradient>

    <!-- 2. 红色宝石背景渐变 (增强了中心光感) -->
    <radialGradient id="redGemGradient" cx="40%" cy="30%" r="75%" fx="40%" fy="30%">
      <stop offset="0%" style="stop-color:#ff5e5e;stop-opacity:1" />
      <stop offset="40%" style="stop-color:#aa0000;stop-opacity:1" />
      <stop offset="100%" style="stop-color:#2a0000;stop-opacity:1" />
    </radialGradient>

    <!-- 3. 金色文字渐变 (调整了色值，不描边也能看清) -->
    <linearGradient id="goldGradient" x1="0%" y1="0%" x2="0%" y2="100%">
      <stop offset="0%" style="stop-color:#fffacd;stop-opacity:1" /> <!-- 亮顶 -->
      <stop offset="15%" style="stop-color:#ffd700;stop-opacity:1" />
      <stop offset="50%" style="stop-color:#ffae00;stop-opacity:1" /> <!-- 中间金橘色 -->
      <stop offset="100%" style="stop-color:#b8860b;stop-opacity:1" /> <!-- 底部深金 -->
    </linearGradient>

    <!-- 4. 强力投影 (因为去掉了描边，需要用阴影来区分文字和背景) -->
    <filter id="strongDropShadow" x="-20%" y="-20%" width="140%" height="140%">
      <feGaussianBlur in="SourceAlpha" stdDeviation="10"/> <!-- 模糊度 -->
      <feOffset dx="0" dy="8" result="offsetblur"/> <!-- 向下偏移 -->
      <feComponentTransfer>
        <feFuncA type="linear" slope="0.7"/> <!-- 阴影浓度 -->
      </feComponentTransfer>
      <feMerge> 
        <feMergeNode/>
        <feMergeNode in="SourceGraphic"/> 
      </feMerge>
    </filter>
  </defs>

  <!-- === 背景层 (缩小了尺寸，让文字凸显出来) === -->
  
  <!-- 黑色底衬 (外扩一点点作为轮廓) -->
  <circle cx="512" cy="512" r="370" fill="#111" />

  <!-- 银色边框环 (半径从480缩小到360) -->
  <circle cx="512" cy="512" r="360" fill="url(#silverGradient)" stroke="#333" stroke-width="1"/>

  <!-- 红色内部圆 (半径从400缩小到300) -->
  <circle cx="512" cy="512" r="300" fill="url(#redGemGradient)" stroke="#600" stroke-width="2"/>

  <!-- 顶部高光 (随圆环缩小) -->
  <ellipse cx="512" cy="360" rx="180" ry="90" fill="white" opacity="0.12" />

  <!-- strongDropShadow 投影，文字宽度约810，背景宽720，实现破框效果 -->
  <path 
    fill="url(#goldGradient)" 
    stroke="none" 
    filter="url(#strongDropShadow)"
    d="M760.529724,338.482849 
	C778.680786,337.288086 795.958313,334.222748 812.651001,328.027496 
	C828.364380,322.195740 842.706055,313.742004 857.144470,305.435547 
	C876.205444,294.469727 895.294800,283.553253 914.374329,272.619720 
	C915.353516,272.058624 916.294800,271.303101 917.587891,271.694824 
	C918.470764,273.640015 917.136658,274.939911 916.352783,276.284912 
	C886.491516,327.521759 856.629028,378.757996 826.674683,429.940399 
	C823.661377,435.089203 820.621216,440.276093 815.991272,444.309326 
	C810.147644,449.399780 803.400330,451.344910 795.749634,451.335358 
	C734.924011,451.259399 674.098145,451.284882 613.272400,451.270508 
	C604.130920,451.268341 602.940796,452.029480 599.789307,460.637939 
	C596.412964,469.860535 593.126892,479.116119 589.796753,488.355621 
	C587.570312,494.533020 587.743042,494.839447 594.279724,494.841431 
	C644.273438,494.856598 694.267212,494.843964 744.260925,494.870331 
	C746.382629,494.871429 748.601257,494.365692 750.602783,495.580750 
	C751.686707,497.541504 750.415283,499.162109 749.807495,500.798920 
	C738.911560,530.145081 727.906738,559.450989 717.117920,588.836304 
	C715.628235,592.893738 713.584778,594.400146 709.153503,594.383911 
	C659.660217,594.202576 610.166199,594.235413 560.672363,594.216064 
	C552.778137,594.213013 552.831360,594.244141 550.147156,601.891846 
	C529.142639,661.737671 508.117645,721.576294 487.094391,781.415588 
	C484.016571,790.176208 480.914429,798.928223 477.874786,807.539062 
	C475.461639,807.754395 474.567108,806.165710 473.426483,805.029724 
	C419.348969,751.177246 365.258606,697.337585 311.216278,643.449646 
	C267.919098,600.276123 224.675583,557.048767 181.421738,513.831726 
	C171.779831,504.198059 159.768173,505.029938 151.363678,515.859131 
	C138.086731,532.966553 124.732506,550.013855 111.411194,567.086792 
	C110.600220,568.126221 109.936707,569.327209 107.851051,569.903137 
	C107.589958,565.250549 107.124290,560.712158 107.114769,556.172852 
	C107.052887,526.676697 107.047668,497.180237 107.113235,467.684082 
	C107.145134,453.337097 109.669319,439.465332 116.597717,426.756836 
	C129.047653,403.920319 149.424881,393.023010 174.459015,392.884216 
	C273.110352,392.337402 371.766449,392.653900 470.420807,392.675323 
	C472.195160,392.675720 474.093292,392.250885 475.747162,393.540802 
	C476.225403,395.802887 475.126587,397.750153 474.417236,399.753021 
	C464.524109,427.685974 454.513733,455.578125 444.803131,483.574280 
	C443.295410,487.921112 440.353394,487.894257 437.001434,487.902954 
	C415.337585,487.959137 393.665985,488.337799 372.013397,487.861603 
	C362.798401,487.658966 356.771973,490.352051 353.475830,499.312622 
	C351.302856,505.219788 348.067719,510.744385 345.196930,516.383728 
	C343.531891,519.654480 343.983215,522.307556 346.589905,524.940674 
	C369.332642,547.913391 391.994568,570.966125 414.741913,593.934326 
	C418.716675,597.947693 419.739258,597.640015 421.771393,592.121338 
	C435.521210,554.780396 449.220886,517.421021 462.958313,480.075439 
	C473.246582,452.106537 483.195282,424.005341 493.968323,396.224060 
	C507.072113,362.432220 531.665527,343.109741 568.140015,339.484070 
	C573.299561,338.971222 578.434631,338.730194 583.595337,338.727844 
	C635.922180,338.703949 688.248962,338.705872 740.575806,338.685028 
	C747.072571,338.682434 753.569397,338.589355 760.529724,338.482849 
	z" />
</svg>